<svg xmlns="http://www.w3.org/2000/svg" width="2048" height="2048" preserveAspectRatio="xMidYMid meet" version="1.0" viewBox="0 0 1536 1536"><metadata>Created by potrace 1.10, written by Peter Selinger 2001-2011</metadata><g fill="#014efe" stroke="none"><path d="M1520 15346 c0 -8 -14 -17 -31 -21 -87 -19 -230 -111 -293 -189 -42 -51 -88 -143 -110 -217 -15 -51 -16 -489 -16 -5395 0 -4983 1 -5341 17 -5364 9 -14 29 -40 45 -58 16 -18 28 -45 28 -60 0 -32 24 -62 105 -132 57 -49 93 -74 268 -187 39 -25 122 -78 182 -118 129 -85 310 -202 415 -270 41 -27 134 -87 205 -133 72 -47 166 -108 210 -137 149 -97 340 -221 430 -281 50 -32 95 -61 100 -64 6 -3 42 -26 82 -52 39 -26 111 -73 160 -104 83 -54 213 -139 448 -292 55 -36 123 -80 150 -97 28 -18 117 -76 198 -129 242 -158 335 -196 482 -196 128 1 243 38 410 132 44 25 100 56 125 70 25 14 104 58 175 98 72 40 150 84 175 98 25 14 50 28 55 32 6 4 39 23 75 42 57 32 217 121 334 187 22 13 60 34 85 48 25 13 60 32 76 42 17 10 62 35 100 55 39 21 75 42 80 46 6 4 35 21 65 37 30 16 114 63 185 103 72 40 150 84 174 98 25 14 67 38 93 53 27 16 50 29 52 29 2 0 62 33 133 73 71 40 136 76 144 80 8 4 28 15 44 25 17 10 66 38 110 62 44 23 85 46 90 50 6 4 33 20 60 35 28 15 140 78 250 140 110 62 223 125 250 140 28 15 84 47 125 70 41 23 95 53 120 67 25 14 110 62 189 106 79 45 145 82 146 82 3 0 140 78 175 100 8 5 42 23 75 41 33 18 128 70 210 117 154 87 167 95 320 179 50 28 108 61 130 73 37 21 372 209 490 275 28 15 84 47 125 70 41 23 95 53 120 67 25 14 99 56 165 93 66 37 149 83 185 103 62 34 112 62 155 89 11 7 51 28 89 48 38 21 102 57 143 81 41 24 76 44 78 44 2 0 26 13 53 29 48 28 112 64 222 124 30 16 60 33 65 37 6 4 35 21 65 37 30 17 114 63 185 103 72 40 150 84 175 98 200 111 373 210 417 239 70 46 162 147 195 213 63 129 58 -26 58 1865 0 1560 -2 1729 -16 1767 -80 212 -205 332 -424 408 -36 13 -101 36 -145 52 -44 16 -93 33 -110 38 -16 5 -93 31 -170 58 -77 27 -194 68 -260 90 -66 23 -165 58 -220 77 -55 20 -158 56 -230 80 -71 24 -188 64 -260 90 -126 44 -497 172 -640 220 -38 13 -95 34 -125 45 -30 12 -68 26 -85 30 -16 5 -115 39 -220 75 -104 36 -203 70 -220 75 -16 5 -39 14 -50 18 -11 5 -36 14 -55 21 -19 7 -89 30 -155 53 -66 23 -183 63 -260 90 -77 27 -153 53 -170 58 -16 4 -55 18 -85 30 -30 12 -147 52 -260 90 -113 38 -230 79 -260 90 -30 12 -68 26 -85 30 -16 5 -95 32 -175 60 -80 28 -197 68 -260 90 -63 22 -153 53 -200 69 -180 64 -466 163 -495 171 -16 5 -68 23 -115 40 -47 17 -168 60 -270 95 -102 34 -225 77 -275 94 -313 110 -328 114 -423 119 -111 5 -193 -9 -278 -50 -281 -135 -401 -439 -294 -743 18 -49 38 -103 45 -120 7 -16 27 -66 45 -110 18 -44 36 -89 41 -100 5 -11 45 -112 89 -225 45 -113 96 -241 115 -285 18 -44 58 -145 90 -225 65 -168 112 -282 131 -325 7 -16 39 -95 70 -175 31 -80 72 -183 91 -230 19 -47 49 -119 65 -160 17 -41 36 -88 43 -105 7 -16 29 -73 49 -125 20 -52 42 -106 47 -120 27 -63 38 -88 54 -130 10 -25 21 -54 26 -65 4 -11 25 -60 45 -110 20 -49 45 -108 57 -130 27 -54 108 -147 165 -188 55 -40 47 -36 672 -347 267 -133 489 -246 495 -251 15 -15 -10 -32 -145 -102 -69 -35 -168 -87 -220 -114 -52 -28 -158 -83 -235 -123 -77 -40 -185 -96 -240 -125 -189 -99 -350 -183 -495 -257 -80 -42 -192 -100 -250 -130 -319 -167 -533 -279 -750 -390 -96 -50 -202 -105 -235 -123 -33 -18 -136 -72 -230 -120 -93 -48 -213 -110 -265 -138 -52 -27 -153 -80 -225 -117 -71 -37 -186 -96 -255 -132 -232 -122 -403 -208 -411 -208 -18 0 -7 19 79 137 81 112 189 265 392 553 45 63 105 149 135 190 71 99 155 216 227 318 32 45 84 119 116 165 316 445 339 484 362 610 7 34 9 1099 8 2957 l-3 2905 -21 60 c-36 100 -94 188 -161 241 -42 33 -159 104 -173 104 -4 0 -21 7 -37 15 -15 8 -68 30 -118 49 -197 75 -284 109 -365 143 -125 52 -217 88 -290 116 -187 72 -258 100 -285 112 -48 21 -170 70 -300 120 -66 25 -133 51 -150 59 -16 7 -50 21 -75 31 -25 10 -58 24 -75 31 -16 7 -102 41 -190 75 -144 55 -221 86 -450 179 -38 16 -113 45 -165 65 -52 20 -104 40 -115 44 -31 13 -97 38 -130 48 -16 5 -29 15 -27 21 1 9 -35 12 -133 12 -110 0 -135 -3 -135 -14z m275 -666 c6 -5 28 -15 50 -23 78 -28 427 -168 480 -192 17 -8 95 -39 175 -70 142 -56 286 -114 345 -140 49 -22 195 -81 270 -110 82 -31 207 -81 250 -100 56 -24 180 -74 335 -136 138 -54 327 -131 505 -205 33 -14 63 -31 67 -37 4 -7 8 -1266 8 -2799 0 -2256 -2 -2789 -13 -2800 -21 -21 -111 -145 -322 -443 -109 -154 -211 -298 -227 -320 -52 -71 -436 -610 -458 -642 -31 -45 -434 -609 -460 -643 -14 -19 -58 -80 -97 -135 -98 -140 -316 -446 -378 -530 -89 -121 -115 -181 -115 -265 0 -169 128 -305 299 -318 105 -7 83 -17 681 296 69 36 175 91 235 122 154 80 513 265 617 320 48 25 152 78 230 119 203 105 417 215 533 276 289 151 316 165 780 405 72 37 182 94 245 127 104 54 220 115 565 293 61 32 187 97 280 145 94 48 215 111 270 140 212 111 489 255 780 405 115 59 290 150 535 278 80 42 158 83 175 91 47 23 124 107 148 159 16 35 21 67 21 127 0 98 -31 175 -95 235 -30 28 -219 128 -688 363 -355 179 -729 367 -831 419 l-184 93 -34 80 c-19 44 -41 98 -49 120 -9 22 -19 49 -24 60 -18 44 -49 125 -84 215 -20 52 -40 104 -44 115 -5 11 -16 40 -26 65 -9 25 -23 59 -30 75 -18 43 -70 176 -140 360 -14 39 -39 102 -55 140 -16 39 -44 111 -63 160 -32 82 -125 321 -164 420 -8 22 -19 49 -24 60 -15 36 -47 119 -74 190 -58 152 -97 251 -110 280 -7 17 -21 50 -30 75 -9 25 -21 53 -26 62 -13 25 -11 48 4 48 6 0 32 -8 57 -17 152 -54 253 -90 395 -138 88 -30 225 -77 305 -105 80 -28 199 -69 265 -92 66 -22 183 -63 260 -90 77 -27 154 -53 170 -58 17 -4 55 -18 85 -30 30 -12 127 -45 215 -75 88 -30 205 -70 260 -90 55 -20 114 -40 130 -45 17 -5 50 -16 75 -25 70 -27 412 -145 445 -155 17 -5 75 -25 130 -44 55 -20 172 -61 260 -91 88 -30 185 -64 215 -75 30 -12 69 -26 85 -30 26 -7 183 -61 495 -170 47 -17 137 -48 200 -70 63 -21 201 -69 305 -106 105 -36 201 -68 215 -71 14 -3 30 -9 35 -14 6 -4 44 -19 85 -33 179 -59 437 -147 455 -155 21 -9 49 -18 160 -56 39 -13 156 -54 260 -90 105 -36 204 -70 220 -75 53 -15 136 -48 151 -61 12 -10 14 -235 14 -1574 0 -1474 -1 -1564 -17 -1583 -10 -11 -44 -34 -77 -52 -32 -18 -81 -45 -108 -61 -27 -16 -51 -29 -53 -29 -3 0 -250 -138 -285 -160 -8 -5 -35 -20 -60 -33 -38 -21 -223 -124 -410 -229 -44 -25 -177 -99 -275 -153 -27 -15 -54 -31 -60 -35 -5 -4 -41 -24 -80 -45 -107 -58 -173 -94 -227 -126 -27 -16 -51 -29 -54 -29 -2 0 -21 -11 -42 -23 -20 -13 -73 -43 -117 -67 -44 -24 -93 -52 -110 -62 -16 -10 -36 -21 -44 -25 -8 -3 -57 -30 -109 -60 -51 -29 -128 -72 -170 -95 -118 -64 -132 -72 -150 -83 -9 -6 -98 -55 -197 -110 -99 -55 -188 -104 -197 -110 -9 -5 -34 -19 -55 -31 -21 -12 -78 -44 -128 -71 -49 -28 -112 -63 -140 -78 -27 -15 -54 -31 -60 -35 -5 -4 -37 -22 -70 -40 -199 -108 -261 -143 -270 -150 -5 -4 -35 -21 -65 -37 -101 -56 -323 -179 -490 -273 -91 -51 -194 -108 -230 -128 -36 -19 -82 -46 -102 -59 -21 -13 -39 -23 -42 -23 -2 0 -63 -34 -136 -75 -73 -41 -134 -75 -135 -75 -2 0 -38 -20 -79 -45 -42 -25 -78 -45 -80 -45 -3 0 -63 -34 -135 -75 -72 -41 -133 -75 -135 -75 -3 0 -39 -20 -80 -45 -42 -25 -78 -45 -81 -45 -2 0 -26 -13 -53 -29 -27 -16 -76 -44 -108 -61 -33 -18 -83 -46 -113 -62 -29 -17 -76 -43 -103 -59 -27 -16 -51 -29 -53 -29 -3 0 -39 -20 -81 -45 -41 -25 -77 -45 -79 -45 -1 0 -62 -34 -135 -75 -73 -41 -134 -75 -136 -75 -3 0 -21 -10 -42 -23 -20 -13 -66 -40 -102 -59 -138 -76 -396 -219 -410 -228 -8 -5 -58 -33 -110 -62 -52 -28 -128 -71 -168 -95 -41 -24 -82 -43 -91 -43 -10 0 -61 28 -114 63 -53 34 -129 83 -169 108 -40 26 -158 101 -263 169 -104 67 -216 138 -248 159 -33 20 -102 64 -155 99 -52 34 -97 62 -98 62 -2 0 -23 13 -46 29 -24 16 -74 49 -113 73 -38 25 -108 69 -155 99 -47 31 -113 73 -147 95 -35 21 -100 63 -145 92 -46 29 -127 81 -181 115 -54 34 -147 94 -206 132 -59 39 -171 111 -249 160 -78 50 -175 111 -215 137 -60 39 -135 87 -226 143 -110 69 -189 126 -195 140 -8 21 -8 10293 0 10307 6 10 62 1 79 -12z" transform="translate(0.000000,1536.000000) scale(0.100000,-0.100000)"/></g></svg>